<mxfile host="Electron" agent="Mozilla/5.0 (Windows NT 10.0; Win64; x64) AppleWebKit/537.36 (KHTML, like Gecko) draw.io/24.7.5 Chrome/126.0.6478.183 Electron/31.3.0 Safari/537.36" version="24.7.5" pages="2">
  <diagram name="宿主機與容器對應" id="-axNmvO5U7fkxRzgi_83">
    <mxGraphModel dx="819" dy="482" grid="1" gridSize="10" guides="1" tooltips="1" connect="1" arrows="1" fold="1" page="1" pageScale="1" pageWidth="1169" pageHeight="827" math="0" shadow="0">
      <root>
        <mxCell id="0" />
        <mxCell id="1" parent="0" />
        <mxCell id="nVHt28sZmbLQS7MiYamL-7" value="PID 1" style="rounded=0;whiteSpace=wrap;html=1;" vertex="1" parent="1">
          <mxGeometry x="326.56" y="100" width="120" height="20" as="geometry" />
        </mxCell>
        <mxCell id="nVHt28sZmbLQS7MiYamL-10" value="PID 1000" style="rounded=0;whiteSpace=wrap;html=1;" vertex="1" parent="1">
          <mxGeometry x="326.56" y="120" width="120" height="20" as="geometry" />
        </mxCell>
        <mxCell id="nVHt28sZmbLQS7MiYamL-17" style="edgeStyle=orthogonalEdgeStyle;rounded=0;orthogonalLoop=1;jettySize=auto;html=1;entryX=0;entryY=0.5;entryDx=0;entryDy=0;" edge="1" parent="1" source="nVHt28sZmbLQS7MiYamL-11" target="nVHt28sZmbLQS7MiYamL-14">
          <mxGeometry relative="1" as="geometry" />
        </mxCell>
        <mxCell id="nVHt28sZmbLQS7MiYamL-11" value="PID 1333" style="rounded=0;whiteSpace=wrap;html=1;" vertex="1" parent="1">
          <mxGeometry x="326.56" y="140" width="120" height="20" as="geometry" />
        </mxCell>
        <mxCell id="nVHt28sZmbLQS7MiYamL-12" value="......" style="rounded=0;whiteSpace=wrap;html=1;" vertex="1" parent="1">
          <mxGeometry x="326.56" y="160" width="120" height="20" as="geometry" />
        </mxCell>
        <mxCell id="nVHt28sZmbLQS7MiYamL-13" value="PID 23782" style="rounded=0;whiteSpace=wrap;html=1;" vertex="1" parent="1">
          <mxGeometry x="326.56" y="180" width="120" height="20" as="geometry" />
        </mxCell>
        <mxCell id="nVHt28sZmbLQS7MiYamL-14" value="PID 1" style="rounded=0;whiteSpace=wrap;html=1;" vertex="1" parent="1">
          <mxGeometry x="490" y="100" width="120" height="20" as="geometry" />
        </mxCell>
        <mxCell id="nVHt28sZmbLQS7MiYamL-15" value="PID 100" style="rounded=0;whiteSpace=wrap;html=1;" vertex="1" parent="1">
          <mxGeometry x="490" y="120" width="120" height="20" as="geometry" />
        </mxCell>
        <mxCell id="nVHt28sZmbLQS7MiYamL-16" value="PID 200" style="rounded=0;whiteSpace=wrap;html=1;" vertex="1" parent="1">
          <mxGeometry x="490" y="140" width="120" height="20" as="geometry" />
        </mxCell>
        <mxCell id="nVHt28sZmbLQS7MiYamL-19" style="edgeStyle=orthogonalEdgeStyle;rounded=0;orthogonalLoop=1;jettySize=auto;html=1;entryX=1;entryY=0.5;entryDx=0;entryDy=0;dashed=1;" edge="1" parent="1" source="nVHt28sZmbLQS7MiYamL-18" target="nVHt28sZmbLQS7MiYamL-14">
          <mxGeometry relative="1" as="geometry" />
        </mxCell>
        <mxCell id="nVHt28sZmbLQS7MiYamL-18" value="容器內&lt;div&gt;應用程式&lt;/div&gt;" style="ellipse;shape=cloud;whiteSpace=wrap;html=1;dashed=1;fillColor=#f5f5f5;fontColor=#333333;strokeColor=#666666;" vertex="1" parent="1">
          <mxGeometry x="650" y="70" width="120" height="80" as="geometry" />
        </mxCell>
        <mxCell id="nVHt28sZmbLQS7MiYamL-24" value="" style="rounded=0;whiteSpace=wrap;html=1;fontSize=15;dashed=1;dashPattern=1 1;" vertex="1" parent="1">
          <mxGeometry x="325.84" y="23.77000000000001" width="120" height="60" as="geometry" />
        </mxCell>
        <mxCell id="nVHt28sZmbLQS7MiYamL-25" value="宿&lt;div style=&quot;font-size: 15px;&quot;&gt;主&lt;/div&gt;&lt;div style=&quot;font-size: 15px;&quot;&gt;機&lt;/div&gt;" style="text;html=1;align=center;verticalAlign=middle;resizable=0;points=[];autosize=1;strokeColor=none;fillColor=none;fontSize=15;" vertex="1" parent="1">
          <mxGeometry x="321.28" y="18.77000000000001" width="40" height="70" as="geometry" />
        </mxCell>
        <mxCell id="nVHt28sZmbLQS7MiYamL-26" value="" style="endArrow=none;html=1;rounded=0;fontSize=15;" edge="1" parent="1">
          <mxGeometry width="50" height="50" relative="1" as="geometry">
            <mxPoint x="359.28" y="83.77000000000001" as="sourcePoint" />
            <mxPoint x="359.28" y="23.77000000000001" as="targetPoint" />
          </mxGeometry>
        </mxCell>
        <mxCell id="nVHt28sZmbLQS7MiYamL-1" value="" style="shape=image;verticalLabelPosition=bottom;labelBackgroundColor=default;verticalAlign=top;aspect=fixed;imageAspect=0;image=https://blog.nashtechglobal.com/wp-content/uploads/2024/09/Docker.logo2_.png;" vertex="1" parent="1">
          <mxGeometry x="370" y="27" width="61.88" height="53.77" as="geometry" />
        </mxCell>
        <mxCell id="nVHt28sZmbLQS7MiYamL-27" value="" style="rounded=0;whiteSpace=wrap;html=1;fontSize=15;dashed=1;dashPattern=1 1;" vertex="1" parent="1">
          <mxGeometry x="490" y="23.77000000000001" width="120" height="60" as="geometry" />
        </mxCell>
        <mxCell id="nVHt28sZmbLQS7MiYamL-28" value="容&lt;div&gt;器&lt;/div&gt;" style="text;html=1;align=center;verticalAlign=middle;resizable=0;points=[];autosize=1;strokeColor=none;fillColor=none;fontSize=15;" vertex="1" parent="1">
          <mxGeometry x="485.43999999999994" y="28.77000000000001" width="40" height="50" as="geometry" />
        </mxCell>
        <mxCell id="nVHt28sZmbLQS7MiYamL-29" value="" style="endArrow=none;html=1;rounded=0;fontSize=15;" edge="1" parent="1">
          <mxGeometry width="50" height="50" relative="1" as="geometry">
            <mxPoint x="523.4399999999999" y="83.77000000000001" as="sourcePoint" />
            <mxPoint x="523.4399999999999" y="23.77000000000001" as="targetPoint" />
          </mxGeometry>
        </mxCell>
        <mxCell id="nVHt28sZmbLQS7MiYamL-6" value="" style="shape=image;verticalLabelPosition=bottom;labelBackgroundColor=default;verticalAlign=top;aspect=fixed;imageAspect=0;image=https://www.melbournebioinformatics.org.au/tutorials/tutorials/docker/media/assets/container.svg;" vertex="1" parent="1">
          <mxGeometry x="543" y="33.04" width="41.46" height="41.46" as="geometry" />
        </mxCell>
        <mxCell id="nVHt28sZmbLQS7MiYamL-34" value="" style="endArrow=none;html=1;rounded=0;" edge="1" parent="1">
          <mxGeometry width="50" height="50" relative="1" as="geometry">
            <mxPoint x="386" y="100" as="sourcePoint" />
            <mxPoint x="385.7" y="83.77" as="targetPoint" />
          </mxGeometry>
        </mxCell>
        <mxCell id="nVHt28sZmbLQS7MiYamL-35" value="" style="endArrow=none;html=1;rounded=0;" edge="1" parent="1">
          <mxGeometry width="50" height="50" relative="1" as="geometry">
            <mxPoint x="552" y="100" as="sourcePoint" />
            <mxPoint x="551.7" y="83.77" as="targetPoint" />
          </mxGeometry>
        </mxCell>
      </root>
    </mxGraphModel>
  </diagram>
  <diagram name="殭屍容器說明" id="p8rPO0eJtpJuhWgOl_0_">
    <mxGraphModel dx="1195" dy="703" grid="1" gridSize="10" guides="1" tooltips="1" connect="1" arrows="1" fold="1" page="1" pageScale="1" pageWidth="1169" pageHeight="827" math="0" shadow="0">
      <root>
        <mxCell id="0h9ga6kyFN6bRCyz0yg4-0" />
        <mxCell id="0h9ga6kyFN6bRCyz0yg4-1" parent="0h9ga6kyFN6bRCyz0yg4-0" />
        <mxCell id="0h9ga6kyFN6bRCyz0yg4-2" value="PID 1" style="rounded=0;whiteSpace=wrap;html=1;" vertex="1" parent="0h9ga6kyFN6bRCyz0yg4-1">
          <mxGeometry x="326.56" y="100" width="120" height="20" as="geometry" />
        </mxCell>
        <mxCell id="0h9ga6kyFN6bRCyz0yg4-3" value="PID 1000" style="rounded=0;whiteSpace=wrap;html=1;" vertex="1" parent="0h9ga6kyFN6bRCyz0yg4-1">
          <mxGeometry x="326.56" y="120" width="120" height="20" as="geometry" />
        </mxCell>
        <mxCell id="0h9ga6kyFN6bRCyz0yg4-4" style="edgeStyle=orthogonalEdgeStyle;rounded=0;orthogonalLoop=1;jettySize=auto;html=1;entryX=0;entryY=0.5;entryDx=0;entryDy=0;" edge="1" parent="0h9ga6kyFN6bRCyz0yg4-1" source="0h9ga6kyFN6bRCyz0yg4-5" target="0h9ga6kyFN6bRCyz0yg4-9">
          <mxGeometry relative="1" as="geometry" />
        </mxCell>
        <mxCell id="0h9ga6kyFN6bRCyz0yg4-5" value="PID 1333" style="rounded=0;whiteSpace=wrap;html=1;" vertex="1" parent="0h9ga6kyFN6bRCyz0yg4-1">
          <mxGeometry x="326.56" y="140" width="120" height="20" as="geometry" />
        </mxCell>
        <mxCell id="0h9ga6kyFN6bRCyz0yg4-6" value="......" style="rounded=0;whiteSpace=wrap;html=1;" vertex="1" parent="0h9ga6kyFN6bRCyz0yg4-1">
          <mxGeometry x="326.56" y="160" width="120" height="20" as="geometry" />
        </mxCell>
        <mxCell id="0h9ga6kyFN6bRCyz0yg4-7" value="PID 23782" style="rounded=0;whiteSpace=wrap;html=1;" vertex="1" parent="0h9ga6kyFN6bRCyz0yg4-1">
          <mxGeometry x="326.56" y="180" width="120" height="20" as="geometry" />
        </mxCell>
        <mxCell id="0h9ga6kyFN6bRCyz0yg4-8" value="PID 1：Supervisord" style="rounded=0;whiteSpace=wrap;html=1;" vertex="1" parent="0h9ga6kyFN6bRCyz0yg4-1">
          <mxGeometry x="490" y="100" width="120" height="20" as="geometry" />
        </mxCell>
        <mxCell id="0h9ga6kyFN6bRCyz0yg4-9" value="PID 100 : Nginx" style="rounded=0;whiteSpace=wrap;html=1;" vertex="1" parent="0h9ga6kyFN6bRCyz0yg4-1">
          <mxGeometry x="490" y="120" width="120" height="20" as="geometry" />
        </mxCell>
        <mxCell id="0h9ga6kyFN6bRCyz0yg4-10" value="PID 200 : Redis" style="rounded=0;whiteSpace=wrap;html=1;" vertex="1" parent="0h9ga6kyFN6bRCyz0yg4-1">
          <mxGeometry x="490" y="140" width="120" height="20" as="geometry" />
        </mxCell>
        <mxCell id="0h9ga6kyFN6bRCyz0yg4-12" value="容器內&lt;div&gt;應用程式&lt;/div&gt;" style="ellipse;shape=cloud;whiteSpace=wrap;html=1;dashed=1;fillColor=#f5f5f5;fontColor=#333333;strokeColor=#666666;" vertex="1" parent="0h9ga6kyFN6bRCyz0yg4-1">
          <mxGeometry x="710" y="100" width="120" height="80" as="geometry" />
        </mxCell>
        <mxCell id="0h9ga6kyFN6bRCyz0yg4-13" value="" style="rounded=0;whiteSpace=wrap;html=1;fontSize=15;dashed=1;dashPattern=1 1;" vertex="1" parent="0h9ga6kyFN6bRCyz0yg4-1">
          <mxGeometry x="325.84" y="23.77000000000001" width="120" height="60" as="geometry" />
        </mxCell>
        <mxCell id="0h9ga6kyFN6bRCyz0yg4-14" value="宿&lt;div style=&quot;font-size: 15px;&quot;&gt;主&lt;/div&gt;&lt;div style=&quot;font-size: 15px;&quot;&gt;機&lt;/div&gt;" style="text;html=1;align=center;verticalAlign=middle;resizable=0;points=[];autosize=1;strokeColor=none;fillColor=none;fontSize=15;" vertex="1" parent="0h9ga6kyFN6bRCyz0yg4-1">
          <mxGeometry x="321.28" y="18.77000000000001" width="40" height="70" as="geometry" />
        </mxCell>
        <mxCell id="0h9ga6kyFN6bRCyz0yg4-15" value="" style="endArrow=none;html=1;rounded=0;fontSize=15;" edge="1" parent="0h9ga6kyFN6bRCyz0yg4-1">
          <mxGeometry width="50" height="50" relative="1" as="geometry">
            <mxPoint x="359.28" y="83.77000000000001" as="sourcePoint" />
            <mxPoint x="359.28" y="23.77000000000001" as="targetPoint" />
          </mxGeometry>
        </mxCell>
        <mxCell id="0h9ga6kyFN6bRCyz0yg4-16" value="" style="shape=image;verticalLabelPosition=bottom;labelBackgroundColor=default;verticalAlign=top;aspect=fixed;imageAspect=0;image=https://blog.nashtechglobal.com/wp-content/uploads/2024/09/Docker.logo2_.png;" vertex="1" parent="0h9ga6kyFN6bRCyz0yg4-1">
          <mxGeometry x="370" y="27" width="61.88" height="53.77" as="geometry" />
        </mxCell>
        <mxCell id="0h9ga6kyFN6bRCyz0yg4-17" value="" style="rounded=0;whiteSpace=wrap;html=1;fontSize=15;dashed=1;dashPattern=1 1;" vertex="1" parent="0h9ga6kyFN6bRCyz0yg4-1">
          <mxGeometry x="490" y="23.77000000000001" width="120" height="60" as="geometry" />
        </mxCell>
        <mxCell id="0h9ga6kyFN6bRCyz0yg4-18" value="&lt;div&gt;&lt;span style=&quot;background-color: initial;&quot;&gt;容&lt;/span&gt;&lt;br&gt;&lt;/div&gt;&lt;div&gt;器&lt;/div&gt;" style="text;html=1;align=center;verticalAlign=middle;resizable=0;points=[];autosize=1;strokeColor=none;fillColor=none;fontSize=15;" vertex="1" parent="0h9ga6kyFN6bRCyz0yg4-1">
          <mxGeometry x="485.43999999999994" y="28.77000000000001" width="40" height="50" as="geometry" />
        </mxCell>
        <mxCell id="0h9ga6kyFN6bRCyz0yg4-19" value="" style="endArrow=none;html=1;rounded=0;fontSize=15;" edge="1" parent="0h9ga6kyFN6bRCyz0yg4-1">
          <mxGeometry width="50" height="50" relative="1" as="geometry">
            <mxPoint x="523.4399999999999" y="83.77000000000001" as="sourcePoint" />
            <mxPoint x="523.4399999999999" y="23.77000000000001" as="targetPoint" />
          </mxGeometry>
        </mxCell>
        <mxCell id="0h9ga6kyFN6bRCyz0yg4-20" value="" style="shape=image;verticalLabelPosition=bottom;labelBackgroundColor=default;verticalAlign=top;aspect=fixed;imageAspect=0;image=https://www.melbournebioinformatics.org.au/tutorials/tutorials/docker/media/assets/container.svg;" vertex="1" parent="0h9ga6kyFN6bRCyz0yg4-1">
          <mxGeometry x="543" y="33.04" width="41.46" height="41.46" as="geometry" />
        </mxCell>
        <mxCell id="0h9ga6kyFN6bRCyz0yg4-21" value="" style="endArrow=none;html=1;rounded=0;" edge="1" parent="0h9ga6kyFN6bRCyz0yg4-1">
          <mxGeometry width="50" height="50" relative="1" as="geometry">
            <mxPoint x="386" y="100" as="sourcePoint" />
            <mxPoint x="385.7" y="83.77" as="targetPoint" />
          </mxGeometry>
        </mxCell>
        <mxCell id="0h9ga6kyFN6bRCyz0yg4-22" value="" style="endArrow=none;html=1;rounded=0;" edge="1" parent="0h9ga6kyFN6bRCyz0yg4-1">
          <mxGeometry width="50" height="50" relative="1" as="geometry">
            <mxPoint x="552" y="100" as="sourcePoint" />
            <mxPoint x="551.7" y="83.77" as="targetPoint" />
          </mxGeometry>
        </mxCell>
        <mxCell id="a-0RZg5VJnBPb4ujLKyr-0" value="PID 300 : Mysql" style="rounded=0;whiteSpace=wrap;html=1;" vertex="1" parent="0h9ga6kyFN6bRCyz0yg4-1">
          <mxGeometry x="490" y="160" width="120" height="20" as="geometry" />
        </mxCell>
        <mxCell id="a-0RZg5VJnBPb4ujLKyr-1" value="√" style="rounded=0;whiteSpace=wrap;html=1;" vertex="1" parent="0h9ga6kyFN6bRCyz0yg4-1">
          <mxGeometry x="610" y="100" width="40" height="20" as="geometry" />
        </mxCell>
        <mxCell id="a-0RZg5VJnBPb4ujLKyr-2" value="√" style="rounded=0;whiteSpace=wrap;html=1;" vertex="1" parent="0h9ga6kyFN6bRCyz0yg4-1">
          <mxGeometry x="610" y="120" width="40" height="20" as="geometry" />
        </mxCell>
        <mxCell id="a-0RZg5VJnBPb4ujLKyr-3" value="√" style="rounded=0;whiteSpace=wrap;html=1;" vertex="1" parent="0h9ga6kyFN6bRCyz0yg4-1">
          <mxGeometry x="610" y="140" width="40" height="20" as="geometry" />
        </mxCell>
        <mxCell id="a-0RZg5VJnBPb4ujLKyr-4" value="√" style="rounded=0;whiteSpace=wrap;html=1;" vertex="1" parent="0h9ga6kyFN6bRCyz0yg4-1">
          <mxGeometry x="610" y="160" width="40" height="20" as="geometry" />
        </mxCell>
        <mxCell id="a-0RZg5VJnBPb4ujLKyr-5" value="PID 1" style="rounded=0;whiteSpace=wrap;html=1;" vertex="1" parent="0h9ga6kyFN6bRCyz0yg4-1">
          <mxGeometry x="326.56" y="391.23" width="120" height="20" as="geometry" />
        </mxCell>
        <mxCell id="a-0RZg5VJnBPb4ujLKyr-6" value="PID 1000" style="rounded=0;whiteSpace=wrap;html=1;" vertex="1" parent="0h9ga6kyFN6bRCyz0yg4-1">
          <mxGeometry x="326.56" y="411.23" width="120" height="20" as="geometry" />
        </mxCell>
        <mxCell id="a-0RZg5VJnBPb4ujLKyr-7" style="edgeStyle=orthogonalEdgeStyle;rounded=0;orthogonalLoop=1;jettySize=auto;html=1;entryX=0;entryY=0.5;entryDx=0;entryDy=0;" edge="1" parent="0h9ga6kyFN6bRCyz0yg4-1" source="a-0RZg5VJnBPb4ujLKyr-8" target="a-0RZg5VJnBPb4ujLKyr-12">
          <mxGeometry relative="1" as="geometry" />
        </mxCell>
        <mxCell id="a-0RZg5VJnBPb4ujLKyr-8" value="PID 1333" style="rounded=0;whiteSpace=wrap;html=1;" vertex="1" parent="0h9ga6kyFN6bRCyz0yg4-1">
          <mxGeometry x="326.56" y="431.23" width="120" height="20" as="geometry" />
        </mxCell>
        <mxCell id="a-0RZg5VJnBPb4ujLKyr-9" value="......" style="rounded=0;whiteSpace=wrap;html=1;" vertex="1" parent="0h9ga6kyFN6bRCyz0yg4-1">
          <mxGeometry x="326.56" y="451.23" width="120" height="20" as="geometry" />
        </mxCell>
        <mxCell id="a-0RZg5VJnBPb4ujLKyr-10" value="PID 23782" style="rounded=0;whiteSpace=wrap;html=1;" vertex="1" parent="0h9ga6kyFN6bRCyz0yg4-1">
          <mxGeometry x="326.56" y="471.23" width="120" height="20" as="geometry" />
        </mxCell>
        <mxCell id="a-0RZg5VJnBPb4ujLKyr-11" value="PID 1：Supervisord" style="rounded=0;whiteSpace=wrap;html=1;" vertex="1" parent="0h9ga6kyFN6bRCyz0yg4-1">
          <mxGeometry x="490" y="391.23" width="120" height="20" as="geometry" />
        </mxCell>
        <mxCell id="a-0RZg5VJnBPb4ujLKyr-12" value="PID 100 : Nginx" style="rounded=0;whiteSpace=wrap;html=1;" vertex="1" parent="0h9ga6kyFN6bRCyz0yg4-1">
          <mxGeometry x="490" y="411.23" width="120" height="20" as="geometry" />
        </mxCell>
        <mxCell id="a-0RZg5VJnBPb4ujLKyr-13" value="PID 200 : Redis" style="rounded=0;whiteSpace=wrap;html=1;" vertex="1" parent="0h9ga6kyFN6bRCyz0yg4-1">
          <mxGeometry x="490" y="431.23" width="120" height="20" as="geometry" />
        </mxCell>
        <mxCell id="a-0RZg5VJnBPb4ujLKyr-14" value="" style="rounded=0;whiteSpace=wrap;html=1;fontSize=15;dashed=1;dashPattern=1 1;" vertex="1" parent="0h9ga6kyFN6bRCyz0yg4-1">
          <mxGeometry x="325.84" y="315" width="120" height="60" as="geometry" />
        </mxCell>
        <mxCell id="a-0RZg5VJnBPb4ujLKyr-15" value="宿&lt;div style=&quot;font-size: 15px;&quot;&gt;主&lt;/div&gt;&lt;div style=&quot;font-size: 15px;&quot;&gt;機&lt;/div&gt;" style="text;html=1;align=center;verticalAlign=middle;resizable=0;points=[];autosize=1;strokeColor=none;fillColor=none;fontSize=15;" vertex="1" parent="0h9ga6kyFN6bRCyz0yg4-1">
          <mxGeometry x="321.28" y="310" width="40" height="70" as="geometry" />
        </mxCell>
        <mxCell id="a-0RZg5VJnBPb4ujLKyr-16" value="" style="endArrow=none;html=1;rounded=0;fontSize=15;" edge="1" parent="0h9ga6kyFN6bRCyz0yg4-1">
          <mxGeometry width="50" height="50" relative="1" as="geometry">
            <mxPoint x="359.28" y="375" as="sourcePoint" />
            <mxPoint x="359.28" y="315" as="targetPoint" />
          </mxGeometry>
        </mxCell>
        <mxCell id="a-0RZg5VJnBPb4ujLKyr-17" value="" style="shape=image;verticalLabelPosition=bottom;labelBackgroundColor=default;verticalAlign=top;aspect=fixed;imageAspect=0;image=https://blog.nashtechglobal.com/wp-content/uploads/2024/09/Docker.logo2_.png;" vertex="1" parent="0h9ga6kyFN6bRCyz0yg4-1">
          <mxGeometry x="370" y="318.23" width="61.88" height="53.77" as="geometry" />
        </mxCell>
        <mxCell id="a-0RZg5VJnBPb4ujLKyr-18" value="" style="rounded=0;whiteSpace=wrap;html=1;fontSize=15;dashed=1;dashPattern=1 1;" vertex="1" parent="0h9ga6kyFN6bRCyz0yg4-1">
          <mxGeometry x="490" y="315" width="120" height="60" as="geometry" />
        </mxCell>
        <mxCell id="a-0RZg5VJnBPb4ujLKyr-19" value="&lt;div&gt;&lt;span style=&quot;background-color: initial;&quot;&gt;容&lt;/span&gt;&lt;br&gt;&lt;/div&gt;&lt;div&gt;器&lt;/div&gt;" style="text;html=1;align=center;verticalAlign=middle;resizable=0;points=[];autosize=1;strokeColor=none;fillColor=none;fontSize=15;" vertex="1" parent="0h9ga6kyFN6bRCyz0yg4-1">
          <mxGeometry x="485.43999999999994" y="320" width="40" height="50" as="geometry" />
        </mxCell>
        <mxCell id="a-0RZg5VJnBPb4ujLKyr-20" value="" style="endArrow=none;html=1;rounded=0;fontSize=15;" edge="1" parent="0h9ga6kyFN6bRCyz0yg4-1">
          <mxGeometry width="50" height="50" relative="1" as="geometry">
            <mxPoint x="523.4399999999999" y="375" as="sourcePoint" />
            <mxPoint x="523.4399999999999" y="315" as="targetPoint" />
          </mxGeometry>
        </mxCell>
        <mxCell id="a-0RZg5VJnBPb4ujLKyr-21" value="" style="shape=image;verticalLabelPosition=bottom;labelBackgroundColor=default;verticalAlign=top;aspect=fixed;imageAspect=0;image=https://www.melbournebioinformatics.org.au/tutorials/tutorials/docker/media/assets/container.svg;" vertex="1" parent="0h9ga6kyFN6bRCyz0yg4-1">
          <mxGeometry x="543" y="324.27" width="41.46" height="41.46" as="geometry" />
        </mxCell>
        <mxCell id="a-0RZg5VJnBPb4ujLKyr-22" value="" style="endArrow=none;html=1;rounded=0;" edge="1" parent="0h9ga6kyFN6bRCyz0yg4-1">
          <mxGeometry width="50" height="50" relative="1" as="geometry">
            <mxPoint x="386" y="391.23" as="sourcePoint" />
            <mxPoint x="385.7" y="375" as="targetPoint" />
          </mxGeometry>
        </mxCell>
        <mxCell id="a-0RZg5VJnBPb4ujLKyr-23" value="" style="endArrow=none;html=1;rounded=0;" edge="1" parent="0h9ga6kyFN6bRCyz0yg4-1">
          <mxGeometry width="50" height="50" relative="1" as="geometry">
            <mxPoint x="552" y="391.23" as="sourcePoint" />
            <mxPoint x="551.7" y="375" as="targetPoint" />
          </mxGeometry>
        </mxCell>
        <mxCell id="a-0RZg5VJnBPb4ujLKyr-24" value="PID 300 : Mysql" style="rounded=0;whiteSpace=wrap;html=1;" vertex="1" parent="0h9ga6kyFN6bRCyz0yg4-1">
          <mxGeometry x="490" y="451.23" width="120" height="20" as="geometry" />
        </mxCell>
        <mxCell id="a-0RZg5VJnBPb4ujLKyr-25" value="√" style="rounded=0;whiteSpace=wrap;html=1;" vertex="1" parent="0h9ga6kyFN6bRCyz0yg4-1">
          <mxGeometry x="610" y="391.23" width="40" height="20" as="geometry" />
        </mxCell>
        <mxCell id="a-0RZg5VJnBPb4ujLKyr-26" value="×" style="rounded=0;whiteSpace=wrap;html=1;" vertex="1" parent="0h9ga6kyFN6bRCyz0yg4-1">
          <mxGeometry x="610" y="411.23" width="40" height="20" as="geometry" />
        </mxCell>
        <mxCell id="a-0RZg5VJnBPb4ujLKyr-27" value="×" style="rounded=0;whiteSpace=wrap;html=1;" vertex="1" parent="0h9ga6kyFN6bRCyz0yg4-1">
          <mxGeometry x="610" y="431.23" width="40" height="20" as="geometry" />
        </mxCell>
        <mxCell id="a-0RZg5VJnBPb4ujLKyr-28" value="×" style="rounded=0;whiteSpace=wrap;html=1;" vertex="1" parent="0h9ga6kyFN6bRCyz0yg4-1">
          <mxGeometry x="610" y="451.23" width="40" height="20" as="geometry" />
        </mxCell>
        <mxCell id="gG6-j-NH0OcHSugF2Eq7-0" value="" style="endArrow=none;dashed=1;html=1;rounded=0;" edge="1" parent="0h9ga6kyFN6bRCyz0yg4-1">
          <mxGeometry width="50" height="50" relative="1" as="geometry">
            <mxPoint x="660" y="110" as="sourcePoint" />
            <mxPoint x="699" y="110" as="targetPoint" />
          </mxGeometry>
        </mxCell>
        <mxCell id="gG6-j-NH0OcHSugF2Eq7-1" value="" style="endArrow=none;dashed=1;html=1;rounded=0;" edge="1" parent="0h9ga6kyFN6bRCyz0yg4-1">
          <mxGeometry width="50" height="50" relative="1" as="geometry">
            <mxPoint x="661" y="171" as="sourcePoint" />
            <mxPoint x="700" y="171" as="targetPoint" />
          </mxGeometry>
        </mxCell>
        <mxCell id="gG6-j-NH0OcHSugF2Eq7-2" value="" style="endArrow=none;dashed=1;html=1;rounded=0;" edge="1" parent="0h9ga6kyFN6bRCyz0yg4-1">
          <mxGeometry width="50" height="50" relative="1" as="geometry">
            <mxPoint x="700" y="110" as="sourcePoint" />
            <mxPoint x="700" y="170" as="targetPoint" />
          </mxGeometry>
        </mxCell>
        <mxCell id="gG6-j-NH0OcHSugF2Eq7-3" value="" style="endArrow=none;dashed=1;html=1;rounded=0;" edge="1" parent="0h9ga6kyFN6bRCyz0yg4-1">
          <mxGeometry width="50" height="50" relative="1" as="geometry">
            <mxPoint x="700" y="139.43" as="sourcePoint" />
            <mxPoint x="720" y="140" as="targetPoint" />
          </mxGeometry>
        </mxCell>
        <mxCell id="gG6-j-NH0OcHSugF2Eq7-4" value="容器內&lt;div&gt;應用程式&lt;/div&gt;" style="ellipse;shape=cloud;whiteSpace=wrap;html=1;dashed=1;fillColor=#f5f5f5;fontColor=#333333;strokeColor=#666666;" vertex="1" parent="0h9ga6kyFN6bRCyz0yg4-1">
          <mxGeometry x="709.44" y="391.23" width="120" height="80" as="geometry" />
        </mxCell>
        <mxCell id="gG6-j-NH0OcHSugF2Eq7-5" value="" style="endArrow=none;dashed=1;html=1;rounded=0;" edge="1" parent="0h9ga6kyFN6bRCyz0yg4-1">
          <mxGeometry width="50" height="50" relative="1" as="geometry">
            <mxPoint x="659.44" y="401.23" as="sourcePoint" />
            <mxPoint x="698.44" y="401.23" as="targetPoint" />
          </mxGeometry>
        </mxCell>
        <mxCell id="gG6-j-NH0OcHSugF2Eq7-6" value="" style="endArrow=none;dashed=1;html=1;rounded=0;" edge="1" parent="0h9ga6kyFN6bRCyz0yg4-1">
          <mxGeometry width="50" height="50" relative="1" as="geometry">
            <mxPoint x="660.44" y="462.23" as="sourcePoint" />
            <mxPoint x="699.44" y="462.23" as="targetPoint" />
          </mxGeometry>
        </mxCell>
        <mxCell id="gG6-j-NH0OcHSugF2Eq7-7" value="" style="endArrow=none;dashed=1;html=1;rounded=0;" edge="1" parent="0h9ga6kyFN6bRCyz0yg4-1">
          <mxGeometry width="50" height="50" relative="1" as="geometry">
            <mxPoint x="699.44" y="401.23" as="sourcePoint" />
            <mxPoint x="699.44" y="461.23" as="targetPoint" />
          </mxGeometry>
        </mxCell>
        <mxCell id="gG6-j-NH0OcHSugF2Eq7-8" value="" style="endArrow=none;dashed=1;html=1;rounded=0;" edge="1" parent="0h9ga6kyFN6bRCyz0yg4-1">
          <mxGeometry width="50" height="50" relative="1" as="geometry">
            <mxPoint x="699.44" y="430.65999999999997" as="sourcePoint" />
            <mxPoint x="719.44" y="431.23" as="targetPoint" />
          </mxGeometry>
        </mxCell>
        <mxCell id="gG6-j-NH0OcHSugF2Eq7-9" value="" style="shape=flexArrow;endArrow=classic;html=1;rounded=0;endWidth=37.22222222222222;endSize=8.647222222222222;width=48.33333333333333;" edge="1" parent="0h9ga6kyFN6bRCyz0yg4-1">
          <mxGeometry width="50" height="50" relative="1" as="geometry">
            <mxPoint x="480" y="230" as="sourcePoint" />
            <mxPoint x="480" y="300" as="targetPoint" />
          </mxGeometry>
        </mxCell>
        <mxCell id="gG6-j-NH0OcHSugF2Eq7-11" value="變成&lt;div&gt;殭屍容器&lt;/div&gt;" style="edgeLabel;html=1;align=center;verticalAlign=middle;resizable=0;points=[];" vertex="1" connectable="0" parent="gG6-j-NH0OcHSugF2Eq7-9">
          <mxGeometry x="-0.4873" y="-8" relative="1" as="geometry">
            <mxPoint x="7" y="2" as="offset" />
          </mxGeometry>
        </mxCell>
      </root>
    </mxGraphModel>
  </diagram>
</mxfile>
